<svg width="24" height="24" viewBox="0 0 24 24" fill="none" xmlns="http://www.w3.org/2000/svg">
<mask id="mask0_2449_36774" style="mask-type:alpha" maskUnits="userSpaceOnUse" x="0" y="0" width="24" height="24">
<rect width="24" height="24" fill="#8A888D"/>
</mask>
<g mask="url(#mask0_2449_36774)">
<rect x="4" y="22" width="10" height="5" rx="2" transform="rotate(-90 4 22)" fill="url(#paint0_linear_2449_36774)"/>
<rect x="2" y="8" width="15" height="7" rx="2" fill="url(#paint1_linear_2449_36774)"/>
<path d="M11 9.07641C11 8.33833 11.4065 7.66025 12.0575 7.31242L19.0575 3.57223C20.3897 2.86038 22 3.8257 22 5.33622V17.6638C22 19.1743 20.3897 20.1396 19.0575 19.4278L12.0575 15.6876C11.4065 15.3398 11 14.6617 11 13.9236V9.07641Z" fill="url(#paint2_linear_2449_36774)"/>
</g>
<defs>
<linearGradient id="paint0_linear_2449_36774" x1="9" y1="22" x2="9" y2="27" gradientUnits="userSpaceOnUse">
<stop stop-color="#CECAF2"/>
<stop offset="1" stop-color="#9791DA"/>
</linearGradient>
<linearGradient id="paint1_linear_2449_36774" x1="9" y1="-3" x2="9.5" y2="15" gradientUnits="userSpaceOnUse">
<stop stop-color="#C3BEED"/>
<stop offset="1" stop-color="#E6E5F9"/>
</linearGradient>
<linearGradient id="paint2_linear_2449_36774" x1="16.5" y1="2" x2="16.5" y2="21" gradientUnits="userSpaceOnUse">
<stop stop-color="#CECAF2"/>
<stop offset="1" stop-color="#9791DA"/>
</linearGradient>
</defs>
</svg>
